<svg xmlns="http://www.w3.org/2000/svg" id="Component_6_1" width="35" height="35" viewBox="0 0 35 35">
    <defs>
        <style>
            .cls-1{isolation:isolate}.cls-2{fill:#fff}
        </style>
    </defs>
    <g id="TX" class="cls-1" transform="translate(-132.715 -94.674)">
        <g id="Group_80" class="cls-1">
            <path id="Path_17" d="M142.657 113.375v4.832h-2.424v-12.086h4.184a5.014 5.014 0 0 1 3.233.942 3.19 3.19 0 0 1 1.166 2.627 2.651 2.651 0 0 1-.494 1.606 3.432 3.432 0 0 1-1.44 1.092 2.6 2.6 0 0 1 1.539 1.054 3.338 3.338 0 0 1 .47 1.826v.888a4.354 4.354 0 0 0 .137 1.058 1.454 1.454 0 0 0 .469.819v.174H147a1.342 1.342 0 0 1-.427-.88 7.7 7.7 0 0 1-.1-1.187v-.855a1.919 1.919 0 0 0-.494-1.408 1.871 1.871 0 0 0-1.4-.5zm0-1.868h1.718a2.271 2.271 0 0 0 1.519-.431 1.6 1.6 0 0 0 .5-1.278 1.758 1.758 0 0 0-.5-1.32 2.03 2.03 0 0 0-1.473-.49h-1.76z" class="cls-2"/>
            <path id="Path_18" d="M155.34 110.4l2.266-4.283h2.823l-3.586 5.993 3.793 6.093h-2.93l-2.332-4.358-2.333 4.358h-2.831l3.678-6.093-3.586-5.993h2.8z" class="cls-2"/>
        </g>
    </g>
    <g id="Group_85" transform="translate(-132.715 -94.674)">
        <path id="Path_28" d="M150.215 97.674a14.5 14.5 0 1 1-14.5 14.5 14.516 14.516 0 0 1 14.5-14.5m0-3a17.5 17.5 0 1 0 17.5 17.5 17.5 17.5 0 0 0-17.5-17.5z" class="cls-2"/>
    </g>
</svg>
